<?xml version="1.0"?>
<svg xmlns="http://www.w3.org/2000/svg" xmlns:xlink="http://www.w3.org/1999/xlink" xmlns:svgjs="http://svgjs.com/svgjs" version="1.1" width="512" height="512" x="0" y="0" viewBox="0 0 512 512" style="enable-background:new 0 0 512 512" xml:space="preserve" class=""><circle r="256" cx="256" cy="256" fill="#45b3e7" shape="circle"/><g transform="matrix(0.64,0,0,0.64,92.16,77.16)"><g xmlns="http://www.w3.org/2000/svg"><path d="m196 377 60 135h82.5l40-97.5v-87.5z" fill="#2f4d8f" data-original="#1a64b6" style="" class=""/><path d="m133.5 337 40 175h82.5v-155z" fill="#5275c3" data-original="#1e8aff" style="" class=""/><path d="m338.5 317h-82.5l-30 59.356 30 59.357 92.5-92.5z" fill="#bfdcff" data-original="#bfdcff" style="" class=""/><path d="m173.5 317-10 26.213 92.5 92.5v-118.713z" fill="#edeff3" data-original="#edeff3" style=""/><path d="m90 317c-49.626 0-90 40.374-90 90v105h173.5l-75-195z" fill="#233952" data-original="#233952" style="" class=""/><path d="m422 317h-8.5l-75 195h173.5v-105c0-49.626-40.374-90-90-90z" fill="#09213d" data-original="#09213d" style="" class=""/><path d="m256 0-71.75 143.5 71.75 143.5c79.253 0 143.5-64.247 143.5-143.5s-64.247-143.5-143.5-143.5z" fill="#fac68f" data-original="#ff876c" style="" class=""/><path d="m112.5 143.5c0 79.253 64.247 143.5 143.5 143.5v-287c-79.253 0-143.5 64.247-143.5 143.5z" fill="#ffd6aa" data-original="#ff9e90" style="" class=""/><path d="m98.5 317v120l75 75v-195z" fill="#3d5168" data-original="#3d5168" style="" class=""/><path d="m338.5 317v195l75-75v-120z" fill="#233952" data-original="#233952" style="" class=""/></g></g></svg>
