<?xml version="1.0"?>
<svg xmlns="http://www.w3.org/2000/svg" xmlns:xlink="http://www.w3.org/1999/xlink" xmlns:svgjs="http://svgjs.com/svgjs" version="1.1" width="512" height="512" x="0" y="0" viewBox="0 0 511 512" style="enable-background:new 0 0 512 512" xml:space="preserve" class=""><circle r="255.5" cx="255.5" cy="256" fill="#45b3e7" shape="circle"/><g transform="matrix(0.7,0,0,0.7,119.4087890625,66.80000000000001)"><path xmlns="http://www.w3.org/2000/svg" d="m326.03125 114.269531c0-70.695312-57.308594-114.269531-128-114.269531l-20.015625 201.410156 148.015625-20.015625zm0 0" fill="#2d2d2d" data-original="#2d2d2d" style="" class=""/><path xmlns="http://www.w3.org/2000/svg" d="m198.03125 0c-20.496094 0-39.859375 4.824219-57.035156 13.386719-2.484375 1.238281-4.917969 2.5625-7.308594 3.953125l-20.65625 164.054687h85zm0 0" fill="#504541" data-original="#504541" style="" class=""/><path xmlns="http://www.w3.org/2000/svg" d="m70.054688 126.078125 63.636718 21.921875v-130.660156c-37.550781 21.878906-62.953125 62.308594-63.636718 108.738281zm0 0" fill="#afa29d" data-original="#afa29d" style="" class=""/><path xmlns="http://www.w3.org/2000/svg" d="m292.230469 287.894531h-114.214844l20.015625 224.105469h123.113281l74.414063-111.625v-9.152344c0-57.066406-46.261719-103.328125-103.328125-103.328125zm0 0" fill="#49914c" data-original="#005fe1" style="" class=""/><path xmlns="http://www.w3.org/2000/svg" d="m103.832031 287.894531c-57.070312 0-103.332031 46.261719-103.332031 103.328125v9.152344l74.414062 111.625h123.117188v-224.105469zm0 0" fill="#5ec362" data-original="#0fa9dd" style="" class=""/><path xmlns="http://www.w3.org/2000/svg" d="m.5 400.375h74.414062v111.625h-74.414062zm0 0" fill="#ffd6aa" data-original="#fff2de" style="" class=""/><path xmlns="http://www.w3.org/2000/svg" d="m321.144531 400.375h74.414063v111.625h-74.414063zm0 0" fill="#fac68f" data-original="#f2d1a5" style="" class=""/><path xmlns="http://www.w3.org/2000/svg" d="m209.914062 181.394531c-4.042968 0-8.007812-.332031-11.882812-.941406l-20.015625 38.546875 20.015625 99.820312c70.578125 0 128-57.421874 128-128v-9.425781zm0 0" fill="#fac68f" data-original="#f2d1a5" style="" class=""/><path xmlns="http://www.w3.org/2000/svg" d="m133.691406 110.71875c-7.929687 9.386719-19.785156 15.359375-33.007812 15.359375h-30.652344v64.742187c0 70.578126 57.417969 128 128 128v-138.367187c-34.664062-5.433594-61.679688-34.234375-64.339844-69.734375zm0 0" fill="#ffd6aa" data-original="#fff2de" style="" class=""/></g></svg>
