<?xml version="1.0"?>
<svg xmlns="http://www.w3.org/2000/svg" xmlns:xlink="http://www.w3.org/1999/xlink" xmlns:svgjs="http://svgjs.com/svgjs" version="1.1" width="512" height="512" x="0" y="0" viewBox="0 0 58 58" style="enable-background:new 0 0 512 512" xml:space="preserve" class=""><circle r="29" cx="29" cy="29" fill="#45b3e7" shape="circle"/><g transform="matrix(0.65,0,0,0.65,10.149999999999999,10.150001394469289)"><g xmlns="http://www.w3.org/2000/svg" id="Page-1" fill="none" fill-rule="evenodd"><g id="031---University" fill-rule="nonzero"><path id="Shape" d="m57 29v26h-18v-28z" fill="#49914c" data-original="#86b4cc" style="" class=""/><path id="Shape" d="m19 27v28h-18v-26z" fill="#49914c" data-original="#86b4cc" style="" class=""/><path id="Rectangle-path" d="m17 27h24v28h-24z" fill="#65cb69" data-original="#a1c8d3" style="" class=""/><path id="Shape" d="m26 40h6c.5522847 0 1 .4477153 1 1v12h-8v-12c0-.5522847.4477153-1 1-1z" fill="#31393c" data-original="#567580" style="" class=""/><g fill="#464f5e"><path id="Shape" d="m26 36c-.5522847 0-1-.4477153-1-1v-2c0-.5522847.4477153-1 1-1s1 .4477153 1 1v2c0 .5522847-.4477153 1-1 1z" fill="#2a3342" data-original="#464f5e" style="" class=""/><path id="Shape" d="m12 37c-.5522847 0-1-.4477153-1-1v-2c0-.5522847.4477153-1 1-1s1 .4477153 1 1v2c0 .5522847-.4477153 1-1 1z" fill="#2a3342" data-original="#464f5e" style="" class=""/><path id="Shape" d="m6 37c-.55228475 0-1-.4477153-1-1v-2c0-.5522847.44771525-1 1-1s1 .4477153 1 1v2c0 .5522847-.44771525 1-1 1z" fill="#2a3342" data-original="#464f5e" style="" class=""/><path id="Shape" d="m12 43c-.5522847 0-1-.4477153-1-1v-2c0-.5522847.4477153-1 1-1s1 .4477153 1 1v2c0 .5522847-.4477153 1-1 1z" fill="#2a3342" data-original="#464f5e" style="" class=""/><path id="Shape" d="m6 43c-.55228475 0-1-.4477153-1-1v-2c0-.5522847.44771525-1 1-1s1 .4477153 1 1v2c0 .5522847-.44771525 1-1 1z" fill="#2a3342" data-original="#464f5e" style="" class=""/><path id="Shape" d="m12 49c-.5522847 0-1-.4477153-1-1v-2c0-.5522847.4477153-1 1-1s1 .4477153 1 1v2c0 .5522847-.4477153 1-1 1z" fill="#2a3342" data-original="#464f5e" style="" class=""/><path id="Shape" d="m6 49c-.55228475 0-1-.4477153-1-1v-2c0-.5522847.44771525-1 1-1s1 .4477153 1 1v2c0 .5522847-.44771525 1-1 1z" fill="#2a3342" data-original="#464f5e" style="" class=""/><path id="Shape" d="m52 37c-.5522847 0-1-.4477153-1-1v-2c0-.5522847.4477153-1 1-1s1 .4477153 1 1v2c0 .5522847-.4477153 1-1 1z" fill="#2a3342" data-original="#464f5e" style="" class=""/><path id="Shape" d="m46 37c-.5522847 0-1-.4477153-1-1v-2c0-.5522847.4477153-1 1-1s1 .4477153 1 1v2c0 .5522847-.4477153 1-1 1z" fill="#2a3342" data-original="#464f5e" style="" class=""/><path id="Shape" d="m52 43c-.5522847 0-1-.4477153-1-1v-2c0-.5522847.4477153-1 1-1s1 .4477153 1 1v2c0 .5522847-.4477153 1-1 1z" fill="#2a3342" data-original="#464f5e" style="" class=""/><path id="Shape" d="m46 43c-.5522847 0-1-.4477153-1-1v-2c0-.5522847.4477153-1 1-1s1 .4477153 1 1v2c0 .5522847-.4477153 1-1 1z" fill="#2a3342" data-original="#464f5e" style="" class=""/><path id="Shape" d="m52 49c-.5522847 0-1-.4477153-1-1v-2c0-.5522847.4477153-1 1-1s1 .4477153 1 1v2c0 .5522847-.4477153 1-1 1z" fill="#2a3342" data-original="#464f5e" style="" class=""/><path id="Shape" d="m46 49c-.5522847 0-1-.4477153-1-1v-2c0-.5522847.4477153-1 1-1s1 .4477153 1 1v2c0 .5522847-.4477153 1-1 1z" fill="#2a3342" data-original="#464f5e" style="" class=""/><path id="Shape" d="m32 36c-.5522847 0-1-.4477153-1-1v-2c0-.5522847.4477153-1 1-1s1 .4477153 1 1v2c0 .5522847-.4477153 1-1 1z" fill="#2a3342" data-original="#464f5e" style="" class=""/></g><path id="Shape" d="m57 53h-56c-.55228475 0-1 .4477153-1 1v2c0 .5522847.44771525 1 1 1h14c0 .5522847.4477153 1 1 1h26c.5522847 0 1-.4477153 1-1h14c.5522847 0 1-.4477153 1-1v-2c0-.5522847-.4477153-1-1-1z" fill="#2f4d8f" data-original="#edc100" style="" class=""/><path id="Shape" d="m43 53v4c0 .5522847-.4477153 1-1 1h-26c-.5522847 0-1-.4477153-1-1v-4z" fill="#f8e8ab" data-original="#f8e8ab" style="" class=""/><path id="Shape" d="m38 4.62v12.38h-18v-12.38l8.75 3.472c.16144.05902931.33856.05902931.5 0z" fill="#2a2a2a" data-original="#393f4b" style="" class=""/><path id="Shape" d="m54.55 24.11c-.33773-.6796577-1.031056-1.1095973-1.79-1.11h-7.76v-2l-5.41-5.41c-.3761733-.3774773-.8870877-.5897587-1.42-.59h-19.23c-.5953306-.0030808-1.1606108.261206-1.54.72l-4.4 5.28v2h-7.76c-.75894397.0004027-1.45226999.4303423-1.79 1.11l-2.45 4.89h56z" fill="#58c15d" data-original="#4397d5" style="" class=""/><path id="Shape" d="m45 21v3c0 .5522847-.4477153 1-1 1h-30c-.5522847 0-1-.4477153-1-1v-3z" fill="#347036" data-original="#2b5781" style="" class=""/><path id="Rectangle-path" d="m15 25h28v4h-28z" fill="#326034" data-original="#3180bc" style="" class=""/><path id="Shape" d="m43 4.5c.0126198.45727892-.2956379.86134645-.74.97l-1.26.34-3 .81-8.75 2.35c-.1642682.03998702-.3357318.03998702-.5 0l-8.75-2.35-4.26-1.15c-.4448894-.11149979-.7568951-.51135113-.7568951-.97s.3120057-.85850021.7568951-.97l13.01-3.5c.1642682-.03998702.3357318-.03998702.5 0l11.75 3.16 1.26.34c.4443621.10865355.7526198.51272108.74.97z" fill="#2a3342" data-original="#464f5e" style="" class=""/><path id="Shape" d="m43.75 11.55c-.1839835.2793852-.4954809.4482694-.83.45-.1966104.0023152-.3889872-.0571467-.55-.17-.8570487-.5649645-1.3720237-1.5234947-1.37-2.55v-3.47l1.26-.34c.4443621-.10865355.7526198-.51272108.74-.97v4.78c.0001625.35850681.1805213.69292216.48.89.2203958.1458986.3730653.3740989.4238163.6334925.0507509.2593936-.0046577.5283048-.1538163.7465075z" fill="#2f4d8f" data-original="#edc100" style="" class=""/></g></g></g></svg>
